PathFileType	4	(X/Y/Z)	pose_F01_0-96.trc
DataRate	CameraRate	NumFrames	NumMarkers	Units	OrigDataRate	OrigDataStartFrame	OrigNumFrames
30	30	6	21	m	30	84	96
Frame#	Time	CHip			RHip			RKnee			RAnkle			RBigToe			RSmallToe			RHeel			LHip			LKnee			LAnkle			LBigToe			LSmallToe			LHeel			Neck			Nose			RShoulder			RElbow			RWrist			LShoulder			LElbow			LWrist			
		X1	Y1	Z1	X2	Y2	Z2	X3	Y3	Z3	X4	Y4	Z4	X5	Y5	Z5	X6	Y6	Z6	X7	Y7	Z7	X8	Y8	Z8	X9	Y9	Z9	X10	Y10	Z10	X11	Y11	Z11	X12	Y12	Z12	X13	Y13	Z13	X14	Y14	Z14	X15	Y15	Z15	X16	Y16	Z16	X17	Y17	Z17	X18	Y18	Z18	X19	Y19	Z19	X20	Y20	Z20	X21	Y21	Z21	
84	2.8	-0.15669991852650594	1.826094809199034	-0.5231568972172638	-0.17059171176503876	1.8254730232382503	-0.46768139255977137	-0.16024912347113218	1.7006282696106416	-0.4540644505282204	-0.1666877532271284	1.5762351216556565	-0.4414440356013453							-0.15365164951279042	1.573578157498617	-0.4291680393639459	-0.14122710946077624	1.826943144215784	-0.5754782418154376	-0.1400683509377857	1.7036022411819836	-0.556955739240842	-0.14313183414443303	1.5789663297425458	-0.5381734134748787	-0.18135913216510643	1.5477125909997438	-0.5636965955880637	-0.16907958064486636	1.5494930514183063	-0.5761351348022004	-0.13283696765519812	1.5638771049272968	-0.5300264339120916	-0.14024387830192298	1.9770462739247094	-0.545172740251435	-0.16623240132601813	2.043679090582891	-0.5665287658831045	-0.16262945276074217	1.9741867245195253	-0.4633623026819836	-0.1738974072059596	1.8933046237200246	-0.42886131334045086	-0.18864020871769463	1.824970930834308	-0.4200902314364461	-1.7414822774724918	1.8898731969280542	1.1664105291271767	-0.11605547639837706	1.894334591494379	-0.6410294288891649	-0.126394132311948	1.8235496894452128	-0.6301343358363765
85	2.8333333333333335	-0.15476143033821094	1.8262299192426608	-0.5253475491119	-0.17056184211166125	1.825718600659906	-0.4677100506011529	-0.16022713626542762	1.7031522363706453	-0.45449143356637195	-0.1666877532271284	1.5762351216556565	-0.4414440356013453							-0.15367682630821958	1.573697847110179	-0.42916162552978376	-0.14121663970557496	1.8266613475321631	-0.5754906413448548	-0.14008464381502164	1.7040759220321362	-0.5569643872847523	-0.14316356776300204	1.5790122192296887	-0.5381036865196537	-0.18137713524160184	1.5476096317166197	-0.5636022836676153	-0.16916169272690218	1.5494741672422863	-0.5760360427833077	-0.13293140817658056	1.5641191696799588	-0.5299187144273293	-0.14099072830548565	1.978339277829354	-0.5483192117030083	-0.16624096146297215	2.0436524537910645	-0.5665745583602441	-0.16264741602334665	1.9742239663055632	-0.46332177146895775	-0.1738848800703123	1.8934511192997292	-0.42886904842125073	-0.18792268530751272	1.8268626756918176	-0.42573187549599845	-1.7384658182741974	1.8879773020055908	1.1624714598294565	-0.11375112706333237	1.8967086354323937	-0.6435218694391307	-0.12838642924324342	1.8258225306641551	-0.6281898492965251
86	2.8666666666666667	-0.1543963624459836	1.8262933499313223	-0.5255402332573955	-0.1683239470108507	1.825721637469354	-0.47000775013166796	-0.15902316004862901	1.7020188768749367	-0.4512063255207411	-0.1666877532271284	1.5762351216556565	-0.4414440356013453							-0.15373674074809912	1.5738345159237355	-0.4291696049728776	-0.141631312532018	1.8293994815026624	-0.5791327973080634	-0.13917720923927573	1.7038174595232218	-0.5538650761622111	-0.14313656502966532	1.5790316992474656	-0.538090763032411	-0.1810362280874388	1.549096802599364	-0.5643629154829886	-0.16673520907695083	1.5510501564818862	-0.5789410268510023	-0.13197518048056606	1.5641380491663692	-0.5265778553419463	-0.1411147667341254	1.9771503713897023	-0.548385968942967	-0.1663141766791528	2.044803311221279	-0.5670720186372792	-0.1626874458085377	1.974174270812189	-0.4633129869679886	-0.17782820604092173	1.8922762625290976	-0.43299310899581817	-0.18754346985903572	1.8241600033985867	-0.41644249010288714	-1.7403340830474487	1.8898996300803297	1.1649111243685435	-0.11389783562894976	1.8953787625879208	-0.6436395555738129	-0.1299683998360795	1.824639977356233	-0.6344560587017644
87	2.9	-0.15483080593336765	1.8252608147574902	-0.5253346260681423	-0.16870320940616082	1.824847146823167	-0.46983022144616865	-0.16017836049046996	1.7006767220532497	-0.45415403757446715	-0.1666877532271284	1.5762351216556565	-0.4414440356013453							-0.1537966551879787	1.573971184737292	-0.4291775844159715	-0.13999164215567833	1.8270166081513513	-0.5810378591849671	-0.1403958891751116	1.7013480127159386	-0.5562369707996077	-0.1431591002710365	1.5791167223296074	-0.5380742009045374	-0.18135872342303833	1.5479390623701588	-0.5636992003283224	-0.1667440293345314	1.5510364452794845	-0.578879453431873	-0.1320040354879625	1.5642671705675661	-0.5265823617925749	-0.14205166648776932	1.9771145180971237	-0.5516327860156943	-0.16718511956330662	2.044899889036496	-0.5700237129831311	-0.16279420205302556	1.9741603363219764	-0.4634835627223119	-0.1756336752150788	1.8945546574930638	-0.43556726759942077	-0.19059830762011679	1.8265386904365064	-0.42658991510830696	-1.7204674634039174	1.8898434193868128	1.1298475280104543	-0.11393912935312667	1.895731432721407	-0.6436913987641624	-0.12710343354616352	1.826160551110998	-0.6338286555282112
88	2.933333333333333	-0.15259605945675198	1.8253830171699228	-0.527537260266648	-0.16857077210197352	1.8236692774214769	-0.46963684652815707	-0.1601799293690341	1.700576638210441	-0.4541327566045098	-0.1666877532271284	1.5762351216556565	-0.4414440356013453							-0.15367009640933343	1.5735117762348847	-0.4290997987188608	-0.13982280807506756	1.825716231768146	-0.5808102537693455	-0.13816840605910352	1.7025078217053609	-0.5589181400306358	-0.14314785106981293	1.5789719068787296	-0.5380894580404397	-0.18107023490752555	1.549026000776175	-0.564354371231556	-0.16675527285882147	1.5510307827324925	-0.5789711150508887	-0.13294102339137598	1.564259041810347	-0.5298606604534962	-0.1419240077196725	1.9782117433628057	-0.5517036513778881	-0.16906766508057502	2.045957888615947	-0.5678585480273656	-0.16271334531818968	1.9741052079622663	-0.463557034343623	-0.1757429498965472	1.8930804160120334	-0.4355839502129833	-0.18887483347389983	1.8267205239527444	-0.42901032419382285	-1.7075285829675861	1.8880104097224208	1.108459814942343	-0.11455153778468563	1.8963446496619625	-0.6468641234976991	-0.12706983229590937	1.8259934538834441	-0.6338585657308272
89	2.966666666666667	-0.15251153038202636	1.825369490902748	-0.5276983574358513	-0.16464118577722753	1.8237748556678912	-0.4741144275138513	-0.15915168813291586	1.7005397319781121	-0.4508914408434986	-0.1666877532271284	1.5762351216556565	-0.4414440356013453							-0.1535435376306882	1.5730523677324775	-0.4290220130217501	-0.13976525523475367	1.825752120536925	-0.5810313617717809	-0.1382825602675425	1.7009571708261746	-0.5585619479639019	-0.14311278673995304	1.5790063580846627	-0.5381299978340001	-0.18104198834518634	1.5490083075695147	-0.5642799359713317	-0.16673891162163107	1.5509835054764787	-0.578908266490499	-0.1328522902199839	1.5641712365941185	-0.5299204654295993	-0.1428389206546686	1.9757540407105891	-0.5543911281549728	-0.16912941576675244	2.0459010389838976	-0.5678663775354897	-0.16288562798912767	1.9729428914493068	-0.4635213985569524	-0.1736937318811514	1.8917753524781615	-0.4375296218303614	-0.19061113910717326	1.8272636002381752	-0.4359814819047559	-1.6971228209582758	1.8879218467326728	1.090160475224696	-0.11468527659358929	1.8951816291787704	-0.6469507121804132	-0.12644566181528147	1.8250276264515701	-0.6424870438609578
